<?xml version="1.0" encoding="UTF-8" standalone="no"?><!-- Generator: Gravit.io --><svg xmlns="http://www.w3.org/2000/svg" xmlns:xlink="http://www.w3.org/1999/xlink" style="isolation:isolate" viewBox="397.503 337.686 36.85 36.847" width="36.85pt" height="36.847pt"><path d=" M 398.895 337.686 C 398.87 337.693 398.846 337.701 398.823 337.71 C 398.067 337.814 397.504 338.459 397.503 339.222 C 397.503 340.07 398.191 340.757 399.038 340.757 C 399.886 340.757 400.574 340.07 400.574 339.222 L 404.148 339.222 C 405.104 339.222 405.603 339.42 405.971 339.75 C 406.334 340.076 406.628 340.628 406.883 341.477 L 413.024 366.257 C 413.254 367.136 413.485 368.041 414.127 368.776 C 414.407 369.092 414.751 369.346 415.135 369.52 C 414.685 370.053 414.391 370.716 414.391 371.463 C 414.391 373.152 415.773 374.533 417.462 374.533 C 419.151 374.533 420.532 373.152 420.532 371.463 C 420.529 370.922 420.379 370.391 420.1 369.927 L 424.802 369.927 C 424.523 370.391 424.374 370.922 424.371 371.463 C 424.371 373.152 425.752 374.533 427.441 374.533 C 429.13 374.533 430.512 373.152 430.512 371.463 C 430.512 370.674 430.191 369.97 429.696 369.424 C 429.781 369.189 429.747 368.927 429.604 368.721 C 429.461 368.516 429.227 368.393 428.977 368.392 L 417.246 368.392 C 416.062 368.392 415.579 368.14 415.255 367.768 C 414.934 367.4 414.739 366.755 414.511 365.897 L 414.511 365.874 L 413.984 363.786 L 428.065 363.786 C 428.388 363.787 428.675 363.586 428.785 363.283 L 434.303 348.698 C 434.393 348.462 434.361 348.197 434.217 347.99 C 434.072 347.784 433.835 347.662 433.582 347.666 L 410.001 347.666 L 408.37 341.117 L 408.37 341.069 C 408.076 340.079 407.695 339.222 407.003 338.598 C 406.31 337.974 405.335 337.686 404.148 337.686 L 398.895 337.686 Z  M 410.384 349.201 L 432.479 349.201 L 427.536 362.251 L 413.624 362.251 L 410.384 349.201 Z  M 417.462 369.927 C 418.319 369.927 418.997 370.605 418.997 371.463 C 418.997 372.32 418.319 372.998 417.462 372.998 C 416.604 372.998 415.927 372.32 415.927 371.463 C 415.927 370.605 416.604 369.927 417.462 369.927 Z  M 427.441 369.927 C 428.299 369.927 428.977 370.605 428.977 371.463 C 428.977 372.32 428.299 372.998 427.441 372.998 C 426.584 372.998 425.906 372.32 425.906 371.463 C 425.906 370.605 426.584 369.927 427.441 369.927 Z " fill="rgb(63,170,170)"/></svg>