<?xml version="1.0" encoding="UTF-8" standalone="no"?><!-- Generator: Gravit.io --><svg xmlns="http://www.w3.org/2000/svg" xmlns:xlink="http://www.w3.org/1999/xlink" style="isolation:isolate" viewBox="402.52 280.727 36.85 38.765" width="36.85pt" height="38.765pt"><path d=" M 437.978 280.727 C 438.003 280.734 438.027 280.743 438.05 280.752 C 438.806 280.861 439.369 281.54 439.37 282.343 C 439.37 283.235 438.683 283.958 437.835 283.958 C 436.987 283.958 436.3 283.235 436.3 282.343 L 432.725 282.343 C 431.769 282.343 431.271 282.551 430.902 282.898 C 430.539 283.241 430.245 283.822 429.99 284.715 L 423.849 310.785 C 423.619 311.71 423.388 312.663 422.746 313.435 C 422.466 313.768 422.123 314.035 421.738 314.218 C 422.188 314.779 422.482 315.476 422.482 316.262 C 422.482 318.039 421.1 319.492 419.411 319.492 C 417.723 319.492 416.341 318.039 416.341 316.262 C 416.344 315.693 416.494 315.135 416.773 314.647 L 412.071 314.647 C 412.35 315.135 412.499 315.693 412.503 316.262 C 412.503 318.039 411.121 319.492 409.432 319.492 C 407.743 319.492 406.361 318.039 406.361 316.262 C 406.361 315.433 406.682 314.691 407.177 314.117 C 407.092 313.87 407.126 313.594 407.269 313.378 C 407.412 313.162 407.646 313.033 407.897 313.032 L 419.627 313.032 C 420.812 313.032 421.294 312.767 421.618 312.375 C 421.939 311.987 422.134 311.309 422.362 310.407 L 422.362 310.382 L 422.889 308.186 L 408.808 308.186 C 408.486 308.187 408.198 307.975 408.088 307.656 L 402.57 292.312 C 402.48 292.064 402.512 291.785 402.657 291.568 C 402.801 291.35 403.039 291.222 403.291 291.226 L 426.872 291.226 L 428.503 284.337 L 428.503 284.286 C 428.797 283.245 429.178 282.343 429.87 281.687 C 430.563 281.03 431.538 280.727 432.725 280.727 L 437.978 280.727 Z  M 426.489 292.841 L 404.395 292.841 L 409.337 306.571 L 423.25 306.571 L 426.489 292.841 Z  M 419.411 314.647 C 418.554 314.647 417.876 315.36 417.876 316.262 C 417.876 317.164 418.554 317.877 419.411 317.877 C 420.269 317.877 420.947 317.164 420.947 316.262 C 420.947 315.36 420.269 314.647 419.411 314.647 Z  M 409.432 314.647 C 408.574 314.647 407.897 315.36 407.897 316.262 C 407.897 317.164 408.574 317.877 409.432 317.877 C 410.289 317.877 410.967 317.164 410.967 316.262 C 410.967 315.36 410.289 314.647 409.432 314.647 Z " fill="rgb(230,103,103)"/></svg>